# xmcd
#
# Track frame offsets:
#	150
#	12791
#	24324
#	36758
#	47964
#	59814
#	74866
#	90221
#	100932
#	114278
#	125012
#	134062
#	145673
#	158328
#	171148
#	181536
#	192349
#
# Disc length: 2709 seconds
#
# Revision: 0
# Processed by: cddbd v1.5.2PL0 Copyright (c) Steve Scherf et al.
# Submitted via: EZCDAudioConverter 3.1.7.1
#
DISCID=e50a9311
DTITLE=Jim Reves and porter Wagoner - Double the Hits
DYEAR=1900
DGENRE=
TTITLE0=A Satisfied Mind
TTITLE1=Eat, Drink and be Merry
TTITLE2=Green. Green grass of home
TTITLE3=Misery Loves Company
TTITLE4=What would you do
TTITLE5=Cold Hard Facts of Life
TTITLE6=Skid Row Joe
TTITLE7=Big Wind
TTITLE8=The Carrol Country Accident
TTITLE9=Sorroy on the Rocks
TTITLE10=If you go I'll Follow
TTITLE11=Loving Letters
TTITLE12=Don't Play that Song
TTITLE13=An Angel made of Ice
TTITLE14=My Trademark
TTITLE15=The Flame of Love
TTITLE16=Dif that Country Moon
EXTD=
EXTT0=
EXTT1=
EXTT2=
EXTT3=
EXTT4=
EXTT5=
EXTT6=
EXTT7=
EXTT8=
EXTT9=
EXTT10=
EXTT11=
EXTT12=
EXTT13=
EXTT14=
EXTT15=
EXTT16=
PLAYORDER=
